mtllib material_0.mtl
usemtl material_0
v 0.00000000 30.00000000 0.00000000
v -25.98076200 -15.00000000 0.00000000
v 0.00000000 30.00000000 20.00000000
v -25.98076200 -15.00000000 20.00000000
v 25.98076200 -15.00000000 0.00000000
v 25.98076200 -15.00000000 20.00000000
vn 0.00000000 1.57079600 -1.04719800
vn -1.36035000 -0.78539800 -1.04719800
vn 0.00000000 1.57079600 1.04719800
vn -1.36035000 -0.78539800 1.04719800
vn 1.36035000 -0.78539800 -1.04719800
vn 1.36035000 -0.78539800 1.04719800
f 1//1 2//2 3//3
f 3//3 2//2 4//4
f 5//5 1//1 6//6
f 6//6 1//1 3//3
f 2//2 5//5 4//4
f 4//4 5//5 6//6
f 4//4 6//6 3//3
f 5//5 2//2 1//1